<?xml version="1.0" encoding="UTF-8"?><svg id="Calque_2" xmlns="http://www.w3.org/2000/svg" viewBox="0 0 70.15 70.15"><defs><style>.cls-1{fill:#fff;}.cls-2{fill:#232524;opacity:.69;stroke:#fff;stroke-miterlimit:10;stroke-width:2px;}</style></defs><g id="header_footer"><circle class="cls-2" cx="35.08" cy="35.08" r="34.08"/><path class="cls-1" d="M35.24,34.15c-.48,0-.93-.09-1.37-.26l-1.68,25.66h6.24l-1.68-25.72c-.47.21-.98.32-1.52.32Z"/><path class="cls-1" d="M36.36,26.02c.26-1.63.42-3.77.42-6.1,0-5.14-1.7-9.31-1.7-9.31,0,0-1.7,4.17-1.7,9.31,0,2.31.15,4.43.41,6.06.39-.13.8-.2,1.23-.2.48,0,.93.09,1.35.25Z"/><path class="cls-1" d="M51.11,38.38s-2.76-3.56-7.21-6.13c-1.84-1.06-3.6-1.93-5.07-2.52-.03.99-.45,1.88-1.09,2.54,1.21.92,2.74,1.94,4.46,2.93,4.45,2.57,8.91,3.18,8.91,3.18Z"/><path class="cls-1" d="M31.19,29.79c-1.44.59-3.15,1.44-4.94,2.47-4.45,2.57-7.21,6.13-7.21,6.13,0,0,4.46-.61,8.91-3.18,1.68-.97,3.19-1.97,4.39-2.87-.67-.65-1.1-1.55-1.15-2.54Z"/><path class="cls-1" d="M35.16,29.08s.03.08.04.12c.12-.05.24-.17.35-.35-.21,0-.37.05-.48.13.03.03.06.06.08.09Z"/><path class="cls-1" d="M35.08,28.98c-.1-.08-.26-.13-.48-.13.11.18.23.3.35.35,0-.04.02-.08.04-.12.02-.04.05-.07.08-.09Z"/><path class="cls-1" d="M34.95,29.2c-.02.13.02.29.12.48.1-.19.14-.35.12-.48-.04.02-.08.02-.12.02s-.08,0-.12-.02Z"/><path class="cls-1" d="M35.08,28.98s-.06.06-.08.09c-.02.04-.03.08-.04.12.04.02.08.02.12.02s.08,0,.12-.02c0-.04-.02-.08-.04-.12-.02-.04-.05-.07-.08-.09Z"/><circle class="cls-1" cx="35.01" cy="29.6" r="2.56"/></g></svg>