<?xml version="1.0" encoding="UTF-8"?><svg id="Calque_2" xmlns="http://www.w3.org/2000/svg" viewBox="0 0 70.15 70.15"><defs><style>.cls-1{fill:#fff;}.cls-2{fill:#232524;opacity:.69;stroke:#fff;stroke-miterlimit:10;stroke-width:2px;}.cls-3{opacity:.43;}</style></defs><g id="header_footer"><g class="cls-3"><circle class="cls-2" cx="35.08" cy="35.08" r="34.08"/><path class="cls-1" d="M49.11,39.73l-12.68-6.35c-.73-.37-1.93-.37-2.66,0l-12.72,6.35c-.73.37-1.1,1.39-.82,2.28l3.39,10.76c.28.89,1.16,1.62,1.95,1.62h19.03c.79,0,1.67-.73,1.95-1.62l3.39-10.76c.28-.89-.09-1.92-.82-2.29Z"/><path class="cls-1" d="M26.03,35.59c1.61-.63,7.52-3.77,7.52-3.77.42-.21.96-.32,1.54-.32s1.12.12,1.54.33c0,0,5.8,2.89,7.32,3.66.99.51.99-.48.99-.48v-5.95c0-.81-.55-1.47-1.22-1.47h-17.3c-.67,0-1.22.66-1.22,1.47v6.05s0,.82.83.49ZM29.18,29.15c0-.24.16-.43.36-.43h11.06c.2,0,.36.2.36.43v.19c0,.24-.16.43-.36.43h-11.06c-.2,0-.36-.2-.36-.43v-.19Z"/><path class="cls-1" d="M30.36,26.47h9.43c.61,0,1.1-.44,1.12-.98v-2.39c0-.55-.5-1.01-1.12-1.01h-9.43c-.61,0-1.12.45-1.12,1.01v2.39c.02.54.51.98,1.12.98ZM38.52,23.4c.61,0,1.11.45,1.11,1s-.5,1-1.11,1-1.11-.45-1.11-1,.5-1,1.11-1ZM35.05,23.4c.61,0,1.11.45,1.11,1s-.5,1-1.11,1-1.11-.45-1.11-1,.5-1,1.11-1ZM31.58,23.4c.61,0,1.11.45,1.11,1s-.5,1-1.11,1-1.11-.45-1.11-1,.5-1,1.11-1Z"/><rect class="cls-1" x="34.38" y="15.75" width="1.39" height="5.53"/></g></g></svg>