<?xml version="1.0" encoding="UTF-8"?><svg id="Calque_2" xmlns="http://www.w3.org/2000/svg" viewBox="0 0 70.15 70.15"><defs><style>.cls-1{fill:#232524;opacity:.69;stroke:#fbb807;stroke-miterlimit:10;stroke-width:2px;}.cls-2{fill:#fff;fill-rule:evenodd;}</style></defs><g id="header_footer"><circle class="cls-1" cx="35.08" cy="35.08" r="34.08"/><path class="cls-2" d="M49.02,36.74l6.24,12.59c.23.53-.04.95-.6.95H15.52c-.6,0-.87-.42-.6-.95l6.24-12.59c.11-.19.38-.34.6-.34l5.37-.26c.38.72.76,1.47,1.17,2.23-6.92-.3-7.19,2.57-9.65,9.3h32.82c-1.89-5.1-1.93-8.96-10.17-8.81.45-.79.87-1.63,1.29-2.46h5.82c.23,0,.49.15.61.34h0ZM43.88,24.61c0,4.84-8.88,18.98-8.88,18.98,0,0-8.88-14.14-8.88-18.98s3.97-8.73,8.88-8.73,8.88,3.93,8.88,8.73h0ZM34.99,18.07c3.86,0,6.96,3.02,6.96,6.77s-3.1,6.81-6.96,6.81-6.96-3.03-6.96-6.81,3.1-6.77,6.96-6.77h0Z"/></g></svg>