<?xml version="1.0" encoding="UTF-8"?><svg id="Calque_2" xmlns="http://www.w3.org/2000/svg" viewBox="0 0 70.15 70.15"><defs><style>.cls-1{fill:#fff;}.cls-2{fill:#232524;opacity:.69;stroke:#fff;stroke-miterlimit:10;stroke-width:2px;}</style></defs><g id="header_footer"><circle class="cls-2" cx="35.08" cy="35.08" r="34.08"/><path class="cls-1" d="M35.08,15.47c-10.81,0-19.6,8.79-19.6,19.6s8.79,19.6,19.6,19.6,19.6-8.79,19.6-19.6-8.79-19.6-19.6-19.6ZM35.08,52.87c-2.42,0-4.83-3.87-6.03-9.55,1.89.26,3.91.4,6.03.4s4.13-.14,6.03-.4c-1.2,5.7-3.59,9.55-6.03,9.55ZM35.08,41.91c-10.64,0-17.79-3.54-17.79-6.84s7.15-6.84,17.79-6.84,17.79,3.54,17.79,6.84-7.15,6.84-17.79,6.84ZM35.08,17.28c2.42,0,4.83,3.87,6.03,9.55-1.89-.26-3.91-.4-6.03-.4s-4.13.14-6.03.4c1.2-5.68,3.6-9.55,6.03-9.55ZM52.38,30.96c-2.05-1.7-5.34-3.04-9.38-3.81-.78-4.14-2.1-7.36-3.76-9.37,6.49,1.56,11.59,6.69,13.14,13.18ZM30.9,17.78c-1.66,2-2.98,5.23-3.76,9.37-4.04.77-7.33,2.11-9.38,3.81,1.54-6.49,6.65-11.61,13.13-13.18ZM17.77,39.19c2.05,1.7,5.34,3.04,9.38,3.81.78,4.14,2.1,7.36,3.76,9.37-6.49-1.56-11.59-6.69-13.14-13.18ZM39.26,52.37c1.65-2,2.97-5.23,3.75-9.36,4.04-.77,7.33-2.11,9.38-3.81-1.54,6.49-6.65,11.61-13.12,13.17Z"/></g></svg>