<?xml version="1.0" encoding="UTF-8"?><svg id="Calque_2" xmlns="http://www.w3.org/2000/svg" viewBox="0 0 70.15 70.15"><defs><style>.cls-1{fill:#fff;}.cls-2{fill:#232524;opacity:.69;stroke:#fff;stroke-miterlimit:10;stroke-width:2px;}.cls-3{opacity:.43;}.cls-4{fill:#535353;}</style></defs><g id="header_footer"><g class="cls-3"><circle class="cls-2" cx="35.08" cy="35.08" r="34.08"/><path class="cls-1" d="M45.04,35.02c0-5.75,2.2-10.57,5.15-11.8.89-.37,1.48-1.24,1.48-2.21h0c0-1.32-1.07-2.39-2.39-2.39h-.19c-.95,0-1.8.56-2.18,1.42-1.27,2.92-6.06,5.08-11.76,5.08s-10.49-2.17-11.76-5.08c-.38-.87-1.24-1.42-2.18-1.42h-.19c-1.32,0-2.39,1.07-2.39,2.39h0c0,.97.59,1.84,1.48,2.21,2.95,1.23,5.15,6.04,5.15,11.8s-2.2,10.57-5.15,11.8c-.89.37-1.48,1.24-1.48,2.21v.26c0,1.32,1.07,2.39,2.39,2.39h.13c.97,0,1.84-.59,2.21-1.48,1.23-2.95,6.04-5.15,11.8-5.15s10.57,2.2,11.8,5.15c.37.89,1.24,1.48,2.21,1.48h.13c1.32,0,2.39-1.07,2.39-2.39v-.26c0-.97-.59-1.84-1.48-2.21-2.95-1.23-5.15-6.04-5.15-11.8Z"/><path class="cls-1" d="M20.24,20.57l1.04,1.03,5.38-5.75c.26-.28-.13-.68-.42-.43l-6,5.15Z"/><path class="cls-1" d="M21.51,21.41l-1.04-1.03-5.38,5.75c-.26.28.13.68.42.43l6-5.15Z"/><path class="cls-4" d="M21.88,20.91c0,.52-.43.95-.95.95s-.95-.43-.95-.95.43-.95.95-.95.95.43.95.95Z"/><path class="cls-1" d="M49.47,20.35l-1.03,1.04,5.75,5.38c.28.26.68-.13.43-.42l-5.15-6Z"/><path class="cls-1" d="M48.62,21.62l1.03-1.03-5.75-5.38c-.28-.26-.68.13-.43.42l5.15,6Z"/><path class="cls-4" d="M49.12,21.99c-.52,0-.95-.43-.95-.95s.43-.95.95-.95.95.43.95.95-.43.95-.95.95Z"/><path class="cls-1" d="M49.91,49.59l-1.04-1.03-5.38,5.75c-.26.28.13.68.42.43l6-5.15Z"/><path class="cls-1" d="M48.64,48.74l1.04,1.03,5.38-5.75c.26-.28-.13-.68-.42-.43l-6,5.15Z"/><path class="cls-4" d="M48.27,49.24c0-.52.43-.95.95-.95s.95.43.95.95-.43.95-.95.95-.95-.43-.95-.95Z"/><path class="cls-1" d="M20.68,49.8l1.03-1.03-5.75-5.38c-.28-.26-.68.13-.43.42l5.15,6Z"/><path class="cls-1" d="M21.53,48.53l-1.03,1.04,5.75,5.38c.28.26.68-.13.43-.42l-5.15-6Z"/><path class="cls-4" d="M21.03,48.16c.52,0,.95.43.95.95s-.43.95-.95.95-.95-.43-.95-.95.43-.95.95-.95Z"/><circle class="cls-4" cx="35.2" cy="35.22" r="6.69" transform="translate(-7.65 60.57) rotate(-75.63)"/><circle class="cls-1" cx="35.2" cy="35.22" r="4.8"/><circle class="cls-4" cx="37.43" cy="32.75" r="1.88"/></g></g></svg>