<svg width="98" height="32" viewBox="0 0 98 32" fill="none" xmlns="http://www.w3.org/2000/svg">
<g clip-path="url(#clip0_673_1605)">
<path d="M50.16 17.12H47.73V21.17H50.16V17.12Z" fill="#D9D9D9"/>
<path d="M57.1201 9.01001V30.49C57.1201 31.16 57.6601 31.71 58.3401 31.71C59.0101 31.71 59.5601 31.17 59.5601 30.49V9.01001H57.1301H57.1201Z" fill="#F5F5F5"/>
<path d="M37.6602 9.01001V30.49C37.6602 31.16 38.2002 31.71 38.8802 31.71C39.5502 31.71 40.1002 31.17 40.1002 30.49V9.01001H37.6702H37.6602Z" fill="#F5F5F5"/>
<path d="M20.68 1.21997H11.71V2.43997H20.68V1.21997Z" fill="#3C3C3B"/>
<path d="M2.43 1.21997L0 3.64997H11.71L14.14 1.21997H2.43Z" fill="white"/>
<path d="M29.96 1.21997L32.39 3.64997H20.68L18.25 1.21997H29.96Z" fill="white"/>
<path d="M17.41 0H14.98V7.39H17.41V0Z" fill="#D9D9D9"/>
<path d="M19.0798 7.39V6.58C19.0798 4.99 17.7898 3.69 16.1898 3.69C14.5898 3.69 13.2998 4.98 13.2998 6.58V7.39H19.0698H19.0798Z" fill="#B1B1B1"/>
<path d="M85.4998 1.21997H76.5298V2.43997H85.4998V1.21997Z" fill="#3C3C3B"/>
<path d="M67.2498 1.21997L64.8198 3.64997H76.5298L78.9598 1.21997H67.2498Z" fill="white"/>
<path d="M94.7798 1.21997L97.2098 3.64997H85.4998L83.0698 1.21997H94.7798Z" fill="white"/>
<path d="M82.2298 0H79.7998V7.39H82.2298V0Z" fill="#D9D9D9"/>
<path d="M83.9001 7.39V6.58C83.9001 4.99 82.6101 3.69 81.0101 3.69C79.4101 3.69 78.1201 4.98 78.1201 6.58V7.39H83.8901H83.9001Z" fill="#B1B1B1"/>
<path d="M83.8999 6.58002H13.3099C11.9699 6.58002 10.8799 7.67002 10.8799 9.01002C10.8799 10.35 11.9699 11.44 13.3099 11.44H83.8999C85.2399 11.44 86.3299 10.35 86.3299 9.01002C86.3299 7.67002 85.2399 6.58002 83.8999 6.58002Z" fill="#F5F5F5"/>
<path d="M63.1998 9.01002L58.3298 4.15002H38.8798L34.0098 9.01002L42.9298 17.93H54.2798L63.1998 9.01002Z" fill="#D9D9D9"/>
<path d="M63.1998 9.01002L58.3298 4.15002H38.8798L34.0098 9.01002H63.1998Z" fill="#F5F5F5"/>
<path d="M52.59 24.01C52.59 26.02 50.96 27.66 48.94 27.66C46.92 27.66 45.29 26.03 45.29 24.01C45.29 21.99 46.92 20.36 48.94 20.36C50.96 20.36 52.59 21.99 52.59 24.01Z" fill="#F5F5F5"/>
<mask id="mask0_673_1605" style="mask-type:luminance" maskUnits="userSpaceOnUse" x="45" y="20" width="8" height="8">
<path d="M52.59 24.01C52.59 26.02 50.96 27.66 48.94 27.66C46.92 27.66 45.29 26.03 45.29 24.01C45.29 21.99 46.92 20.36 48.94 20.36C50.96 20.36 52.59 21.99 52.59 24.01Z" fill="white"/>
</mask>
<g mask="url(#mask0_673_1605)">
<path d="M51.38 27.66V24.01C51.38 22.67 50.29 21.58 48.95 21.58C47.61 21.58 46.52 22.67 46.52 24.01V27.66H51.38Z" fill="#B1B1B1"/>
</g>
<path d="M48.9398 22.39C49.8298 22.39 50.5598 23.12 50.5598 24.01C50.5598 24.9 49.8298 25.63 48.9398 25.63C48.0498 25.63 47.3198 24.9 47.3198 24.01C47.3198 23.12 48.0498 22.39 48.9398 22.39Z" fill="#3C3C3B"/>
<path d="M49.1502 23.61C49.1502 23.95 48.8802 24.22 48.5402 24.22C48.2002 24.22 47.9302 23.95 47.9302 23.61C47.9302 23.27 48.2002 23 48.5402 23C48.8802 23 49.1502 23.27 49.1502 23.61Z" fill="#575756"/>
</g>
<defs>
<clipPath id="clip0_673_1605">
<rect width="97.21" height="31.72" fill="white"/>
</clipPath>
</defs>
</svg>
