<svg width="21" height="21" viewBox="0 0 21 21" fill="none" xmlns="http://www.w3.org/2000/svg">
<g id="Main_process">
<path id="Vector" d="M4.00991 4.05463L1.52972 6.48302L0 4.98523L5.09159 0L10.1832 4.98523L8.65348 6.48302L6.17327 4.05463L6.17326 9.4409H4.00991V4.05463ZM15.9084 7.8523C17.4019 7.8523 18.6126 6.66687 18.6126 5.20458C18.6126 3.74229 17.4019 2.55686 15.9084 2.55686C14.4149 2.55686 13.2042 3.74229 13.2042 5.20458C13.2042 6.66687 14.4149 7.8523 15.9084 7.8523ZM15.9084 9.97044C13.2201 9.97044 11.0409 7.83671 11.0409 5.20458C11.0409 2.57245 13.2201 0.438685 15.9084 0.438685C18.5967 0.438685 20.776 2.57245 20.776 5.20458C20.776 7.83671 18.5967 9.97044 15.9084 9.97044ZM21 16.0148L19.4703 14.517L16.9901 16.9454V11.5591H14.8267V16.9454L12.3466 14.517L10.8168 16.0148L15.9084 21L21 16.0148ZM2.92823 17.9136H7.25494L7.25495 13.6773H2.92823V17.9136ZM8.33666 11.5591C8.93407 11.5591 9.41834 12.0332 9.41834 12.6182V18.9727C9.41834 19.5576 8.93407 20.0318 8.33666 20.0318H1.84654C1.24915 20.0318 0.764857 19.5576 0.764868 18.9727V12.6182C0.764868 12.0332 1.24915 11.5591 1.84655 11.5591H8.33666Z" fill="white"/>
</g>
</svg>
