<svg width="31" height="31" viewBox="0 0 31 31" fill="none" xmlns="http://www.w3.org/2000/svg">
<g id="Property 1=Hover">
<path id="Vector" d="M16.7916 9.32656L12.4036 12.9168H7.74996V18.0835H12.4036L16.7916 21.6737V9.32656ZM11.4814 20.6668H6.45829C5.74493 20.6668 5.16663 20.0885 5.16663 19.3751V11.6251C5.16663 10.9117 5.74493 10.3334 6.45829 10.3334H11.4814L18.3202 4.7381C18.5962 4.51224 19.0031 4.55293 19.229 4.82899C19.3234 4.94437 19.375 5.08887 19.375 5.23795V25.7622C19.375 26.1189 19.0858 26.408 18.7291 26.408C18.5801 26.408 18.4355 26.3565 18.3202 26.262L11.4814 20.6668ZM24.3648 21.4302L22.528 19.5934C23.7527 18.6486 24.5416 17.1665 24.5416 15.5001C24.5416 13.6525 23.572 12.0316 22.1137 11.1182L23.9719 9.26004C25.8844 10.6713 27.125 12.9408 27.125 15.5001C27.125 17.8795 26.0526 20.0086 24.3648 21.4302Z" fill="#FFB81C"/>
</g>
</svg>
