<svg width="31" height="31" viewBox="0 0 31 31" fill="none" xmlns="http://www.w3.org/2000/svg">
<g id="Property 1=OFF">
<path id="Vector" d="M14.1666 10.7757L10.7694 13.5552H7.16663V17.5552H10.7694L14.1666 20.3347V10.7757ZM10.0555 19.5552H6.16663C5.61435 19.5552 5.16663 19.1075 5.16663 18.5552V12.5552C5.16663 12.0029 5.61435 11.5552 6.16663 11.5552H10.0555L15.35 7.22331C15.5637 7.04845 15.8787 7.07995 16.0536 7.29367C16.1267 7.383 16.1666 7.49487 16.1666 7.61029V23.5C16.1666 23.7762 15.9427 24 15.6666 24C15.5512 24 15.4393 23.9601 15.35 23.887L10.0555 19.5552ZM24.5808 15.5552L28.1163 19.0907L26.7021 20.5049L23.1666 16.9694L19.6311 20.5049L18.2169 19.0907L21.7524 15.5552L18.2169 12.0196L19.6311 10.6054L23.1666 14.141L26.7021 10.6054L28.1163 12.0196L24.5808 15.5552Z" fill="white"/>
</g>
</svg>
