<svg width="31" height="31" viewBox="0 0 31 31" fill="none" xmlns="http://www.w3.org/2000/svg">
<g id="Property 1=Hover">
<path id="Vector" d="M3.87504 3.875H27.125C27.8384 3.875 28.4167 4.4533 28.4167 5.16667V25.8333C28.4167 26.5467 27.8384 27.125 27.125 27.125H19.375C19.375 26.2465 19.3076 25.3837 19.1775 24.5417H25.8334V6.45833H5.16671V10.5308C4.32462 10.4008 3.46188 10.3333 2.58337 10.3333V5.16667C2.58337 4.4533 3.16168 3.875 3.87504 3.875ZM16.7917 27.125H14.2084C14.2084 20.7046 9.00368 15.5 2.58337 15.5V12.9167C10.4304 12.9167 16.7917 19.278 16.7917 27.125ZM11.625 27.125H9.04171C9.04171 23.5582 6.15021 20.6667 2.58337 20.6667V18.0833C7.57694 18.0833 11.625 22.1314 11.625 27.125ZM6.45837 27.125H2.58337V23.25C4.72347 23.25 6.45837 24.9848 6.45837 27.125Z" fill="#FFB81C"/>
</g>
</svg>
