<svg width="25" height="25" viewBox="0 0 25 25" fill="none" xmlns="http://www.w3.org/2000/svg">
<g id="Property 1=Hover">
<path id="Vector" d="M4.7737 4.82694L1.8211 7.71788L0 5.9348L6.06142 0L12.1228 5.9348L10.3018 7.71788L7.34913 4.82694L7.34912 11.2392H4.7737V4.82694ZM18.9386 9.34798C20.7165 9.34798 22.1579 7.93676 22.1579 6.19593C22.1579 4.4551 20.7165 3.04388 18.9386 3.04388C17.1606 3.04388 15.7193 4.4551 15.7193 6.19593C15.7193 7.93676 17.1606 9.34798 18.9386 9.34798ZM18.9386 11.8696C15.7382 11.8696 13.1439 9.32942 13.1439 6.19593C13.1439 3.06244 15.7382 0.522244 18.9386 0.522244C22.139 0.522244 24.7333 3.06244 24.7333 6.19593C24.7333 9.32942 22.139 11.8696 18.9386 11.8696ZM25 19.0652L23.1789 17.2821L20.2263 20.1731V13.7608H17.6509V20.1731L14.6983 17.2821L12.8772 19.0652L18.9386 25L25 19.0652ZM3.48599 21.3257H8.63684L8.63685 16.2824H3.48599V21.3257ZM9.92459 13.7608C10.6358 13.7608 11.2123 14.3253 11.2123 15.0216V22.5865C11.2123 23.2829 10.6358 23.8474 9.92459 23.8474H2.19826C1.48708 23.8474 0.910544 23.2829 0.910557 22.5865V15.0216C0.910557 14.3253 1.48708 13.7608 2.19827 13.7608H9.92459Z" fill="#FFB81C"/>
</g>
</svg>
