<svg width="25" height="25" viewBox="0 0 25 25" fill="none" xmlns="http://www.w3.org/2000/svg">
<g id="Property 1=Active">
<path id="Vector" d="M4.82694 20.2263L7.71788 23.1789L5.9348 25L-2.64953e-07 18.9386L5.9348 12.8772L7.71788 14.6982L4.82694 17.6509L11.2392 17.6509L11.2392 20.2263L4.82694 20.2263ZM9.34798 6.0614C9.34798 4.28345 7.93675 2.84212 6.19593 2.84212C4.4551 2.84212 3.04388 4.28345 3.04388 6.0614C3.04388 7.83935 4.4551 9.28069 6.19593 9.28069C7.93675 9.28069 9.34798 7.83935 9.34798 6.0614ZM11.8696 6.0614C11.8696 9.26176 9.32942 11.8561 6.19593 11.8561C3.06244 11.8561 0.522243 9.26176 0.522243 6.0614C0.522243 2.86105 3.06244 0.266685 6.19593 0.266685C9.32942 0.266685 11.8696 2.86105 11.8696 6.0614ZM19.0652 -8.33366e-07L17.2821 1.82109L20.1731 4.77369L13.7608 4.77369L13.7608 7.34912L20.1731 7.34912L17.2821 10.3017L19.0652 12.1228L25 6.0614L19.0652 -8.33366e-07ZM21.3257 21.514L21.3257 16.3632L16.2824 16.3632L16.2824 21.514L21.3257 21.514ZM13.7608 15.0754C13.7608 14.3642 14.3253 13.7877 15.0216 13.7877L22.5865 13.7877C23.2829 13.7877 23.8474 14.3642 23.8474 15.0754L23.8474 22.8017C23.8474 23.5129 23.2829 24.0895 22.5865 24.0894L15.0216 24.0894C14.3253 24.0894 13.7608 23.5129 13.7608 22.8017L13.7608 15.0754Z" fill="#00FFFF"/>
</g>
</svg>
