<svg width="43" height="43" viewBox="0 0 43 43" fill="none" xmlns="http://www.w3.org/2000/svg">
<g id="United Kingdom (GB)" clip-path="url(#clip0_68_286)">
<path id="Vector" d="M-18.5 -8.5H61.5V51.5H-18.5V-8.5Z" fill="#012169"/>
<path id="Vector_2" d="M-9.125 -8.5L21.375 14.125L51.75 -8.5H61.5V-0.75L31.5 21.625L61.5 43.875V51.5H51.5L21.5 29.125L-8.375 51.5H-18.5V44L11.375 21.75L-18.5 -0.5V-8.5H-9.125Z" fill="white"/>
<path id="Vector_3" d="M34.5 26.625L61.5 46.5V51.5L27.625 26.625H34.5ZM11.5 29.125L12.25 33.5L-11.75 51.5H-18.5L11.5 29.125ZM61.5 -8.5V-8.125L30.375 15.375L30.625 9.875L55.25 -8.5H61.5ZM-18.5 -8.5L11.375 13.5H3.875L-18.5 -3.25V-8.5Z" fill="#C8102E"/>
<path id="Vector_4" d="M11.625 -8.5V51.5H31.625V-8.5H11.625ZM-18.5 11.5V31.5H61.5V11.5H-18.5Z" fill="white"/>
<path id="Vector_5" d="M-18.5 15.625V27.625H61.5V15.625H-18.5ZM15.625 -8.5V51.5H27.625V-8.5H15.625Z" fill="#C8102E"/>
</g>
<defs>
<clipPath id="clip0_68_286">
<rect width="80" height="60" fill="white" transform="translate(-18.5 -8.5)"/>
</clipPath>
</defs>
</svg>
